# xmcd CD database file
#
# Track frame offsets:
#	150
#	16262
#	33326
#	46317
#
# Disc length: 832 seconds
#
# Revision: 0
# Processed by: cddbd v1.5.2PL0 Copyright (c) Steve Scherf et al.
# Submitted via: CDex 1.51
#
DISCID=25033e04
DTITLE=Rose Carleo - Whisper 
DYEAR=1900
DGENRE=Country
TTITLE0=Rose Carleo - Whisper 
TTITLE1=Rose Carleo - Chrome Plated Heart
TTITLE2=Rose Carleo - Crazy
TTITLE3=Rose Carleo - Freedom
EXTD=
EXTT0=
EXTT1=
EXTT2=
EXTT3=
PLAYORDER=
